<svg width="735" height="1575" viewBox="0 0 735 1575" fill="none" xmlns="http://www.w3.org/2000/svg">
<path fill-rule="evenodd" clip-rule="evenodd" d="M721.238 1094.5C688.295 1006.35 660.474 973.687 417.236 737.7C282.771 607.27 170.25 486.281 156.586 457.49C82.3364 300.894 210.897 122.406 385.817 139.227C498.16 150.029 574.661 226.588 585.455 339.016C594.024 428.273 564.829 488.411 471.451 573.82L398.478 640.568L449.52 690.44L500.563 740.325L585.221 654.517C631.787 607.338 682.418 540.893 697.729 506.881C754.278 381.274 722.996 214.33 624.468 115.865C491.458 -17.0668 321.468 -36.6499 160.816 62.4749C13.6208 153.286 -44.3564 371.654 37.0752 528.484C52.4827 558.181 171.019 687.595 300.472 816.087C429.925 944.58 547.774 1072.66 562.344 1100.7C664.346 1296.94 451.196 1506.44 259.33 1398.52C190.916 1360.04 149.418 1284.57 149.418 1198.62C149.418 1122.49 164.839 1094.33 261.376 994.204L328.156 924.942L275.149 873.146L222.143 821.351L131.703 919.101C23.6589 1035.89 -8.87255 1115.01 1.97584 1234.7C29.6598 1540.29 389.113 1684.38 611.656 1479.1C645.698 1447.69 685.645 1398.26 700.434 1369.27C735.822 1299.84 746.3 1161.57 721.238 1094.5Z" fill="url(#paint0_linear_119_5081)" fill-opacity="0.6"/>
<defs>
<linearGradient id="paint0_linear_119_5081" x1="424.061" y1="-3.25595e-05" x2="444.69" y2="1580.39" gradientUnits="userSpaceOnUse">
<stop stop-color="#F48000"/>
<stop offset="1" stop-color="#E30069"/>
</linearGradient>
</defs>
</svg>
