<svg width="618" height="140" viewBox="0 0 618 140" fill="none" xmlns="http://www.w3.org/2000/svg">
<path d="M251.043 57.1347C247.836 41.3229 233.841 33.8563 218.533 33.8563C201.622 33.8563 186.606 42.787 186.606 56.6955C186.606 71.1896 196.957 76.8994 210.223 79.6811L222.032 82.0236C229.759 83.6341 235.59 86.4158 235.59 92.8576C235.59 99.2994 229.03 103.106 219.845 103.106C209.494 103.106 203.809 98.5674 202.205 90.3687H185.294C187.189 105.156 200.018 116.282 219.262 116.282C237.048 116.282 252.501 107.205 252.501 90.8079C252.501 75.4354 240.401 70.4576 224.51 67.3831L213.431 65.187C206.579 63.8693 202.934 61.0876 202.934 55.8171C202.934 50.5465 209.932 47.1791 217.513 47.1791C226.26 47.1791 232.82 49.9608 234.715 57.1347H251.043Z" fill="white"/>
<path d="M263.78 8.23535V25.804H281.129V8.23535H263.78ZM263.78 35.6131V114.379H281.129V35.6131H263.78Z" fill="white"/>
<path d="M315.087 72.5073C315.087 58.3059 319.46 48.0576 332.289 48.0576C345.119 48.0576 346.139 58.4523 346.139 69.1399V114.379H363.488V72.5073C363.488 58.3059 367.861 48.0576 380.69 48.0576C393.52 48.0576 394.54 58.4523 394.54 69.1399V114.379H411.889V64.8942C411.889 46.1543 404.891 33.8563 386.23 33.8563C376.463 33.8563 367.57 37.8092 360.718 47.7648C357.073 38.9804 350.075 33.8563 337.829 33.8563C327.333 33.8563 319.606 38.3948 315.087 46.5935V35.6131H297.738V114.379H315.087V72.5073Z" fill="white"/>
<path d="M443.703 74.9961C443.703 56.8419 452.596 48.0576 463.967 48.0576C476.213 48.0576 483.357 58.4523 483.357 74.9961C483.357 91.8327 476.213 102.081 463.967 102.081C452.596 102.081 443.703 93.1504 443.703 74.9961ZM427.083 35.6131V140H444.432V103.984C449.097 111.744 457.261 116.282 467.758 116.282C487.001 116.282 501.434 100.324 501.434 74.9961C501.434 49.8144 487.001 33.8563 467.758 33.8563C457.261 33.8563 449.097 38.3948 444.432 46.1543V35.6131H427.083Z" fill="white"/>
<path d="M530.07 8.23535H512.721V114.379H530.07V8.23535Z" fill="white"/>
<path d="M617.531 79.9739C619.135 53.621 603.973 33.8563 579.918 33.8563C557.613 33.8563 541.431 50.6929 541.431 74.4105C541.431 97.1033 555.863 116.282 581.084 116.282C601.203 116.282 613.157 103.399 616.656 90.8079H599.599C596.538 98.2746 589.54 101.788 580.356 101.788C570.442 101.788 560.237 94.6144 559.071 79.9739H617.531ZM579.918 47.472C590.123 47.472 599.453 54.9386 599.891 67.2367H559.071C560.674 52.4497 571.754 47.472 579.918 47.472Z" fill="white"/>
<path fill-rule="evenodd" clip-rule="evenodd" d="M85.35 4.46042C92.8334 7.41135 99.6309 11.7396 105.355 17.1983L61.6953 58.8317L18.0355 100.465C12.3111 95.006 7.7721 88.524 4.67754 81.3887C1.58301 74.2533 -0.00641839 66.6043 1.9479e-05 58.8785C0.00645525 51.1525 1.60862 43.5011 4.71505 36.361C7.8215 29.2208 12.3713 22.7318 18.1048 17.2645C23.8383 11.7971 30.6431 7.45846 38.1308 4.4962C45.6185 1.53396 53.6423 0.00615696 61.7443 1.85666e-05C69.8462 -0.00611909 77.8674 1.50952 85.35 4.46042ZM38.1789 135.54C30.6961 132.589 23.8985 128.26 18.1741 122.802L61.8339 81.1685L105.494 39.535C111.218 44.9937 115.757 51.4758 118.851 58.6113C121.947 65.7467 123.536 73.3959 123.529 81.1217C123.522 88.8476 121.921 96.4988 118.814 103.639C115.707 110.779 111.158 117.268 105.424 122.736C99.6911 128.203 92.8858 132.542 85.3983 135.504C77.9108 138.466 69.8866 139.994 61.7849 140C53.6829 140.006 45.6616 138.491 38.1789 135.54Z" fill="white"/>
</svg>
