<svg width="38" height="43" viewBox="0 0 38 43" fill="none" xmlns="http://www.w3.org/2000/svg">
<path fill-rule="evenodd" clip-rule="evenodd" d="M26.0579 1.36581C28.3426 2.26941 30.4179 3.59476 32.1655 5.26625L18.8359 18.0147L5.50634 30.7631C3.75865 29.0915 2.37287 27.1067 1.42808 24.9218C0.483303 22.7369 -0.00195957 20.3947 5.94705e-06 18.029C0.00197083 15.6633 0.491122 13.3203 1.43953 11.134C2.38795 8.94762 3.77704 6.96064 5.52751 5.2865C7.27798 3.61235 9.35553 2.28383 11.6416 1.37677C13.9276 0.469709 16.3773 0.0018853 18.8509 5.68521e-06C21.3245 -0.00187371 23.7734 0.462227 26.0579 1.36581ZM11.6562 41.5032C9.37171 40.5997 7.29635 39.2742 5.54866 37.6028L18.8783 24.8543L32.2078 12.1059C33.9557 13.7774 35.3413 15.7623 36.2861 17.9472C37.231 20.1321 37.7162 22.4743 37.7143 24.84C37.7122 27.2058 37.2231 29.5486 36.2748 31.7351C35.3262 33.9214 33.9373 35.9083 32.1867 37.5826C30.4363 39.2566 28.3586 40.5852 26.0726 41.4922C23.7866 42.3992 21.3368 42.8671 18.8633 42.869C16.3897 42.8708 13.9408 42.4068 11.6562 41.5032Z" fill="#5356D9"/>
</svg>
